<svg width="137" height="137" viewBox="0 0 137 137" fill="none" xmlns="http://www.w3.org/2000/svg">
<path d="M111.601 92.2562L118.765 94.6394C119.25 93.1901 119.282 91.6278 118.859 90.1595C118.436 88.6912 117.576 87.3861 116.395 86.4171C115.213 85.4481 113.765 84.8609 112.242 84.7333C110.72 84.6057 109.194 84.9437 107.867 85.7025L111.601 92.2562ZM45.875 23.514L52.2552 27.5412C53.0791 26.2383 53.4839 24.7142 53.4151 23.1742C53.3464 21.6342 52.8073 20.1523 51.8706 18.928C50.9339 17.7037 49.6445 16.7958 48.1761 16.3267C46.7077 15.8576 45.1308 15.8497 43.6578 16.3041L45.875 23.514ZM107.875 85.7025C101.626 89.265 94.5546 91.1317 87.3617 91.1175V106.201C97.1727 106.216 106.817 103.668 115.341 98.81L107.875 85.7025ZM87.3617 91.1175C81.9146 91.1184 76.5206 90.0465 71.4877 87.9629C66.4549 85.8793 61.8817 82.8248 58.0293 78.9738C54.1769 75.1228 51.1207 70.5508 49.0353 65.5186C46.9499 60.4865 45.876 55.093 45.875 49.6458H30.7917C30.7917 64.6471 36.7509 79.034 47.3584 89.6416C57.966 100.249 72.3529 106.208 87.3542 106.208V91.125L87.3617 91.1175ZM45.875 49.6458C45.875 41.5084 48.2129 33.9441 52.2477 27.5488L39.4872 19.4792C33.7888 28.5076 30.7732 38.9695 30.7917 49.6458H45.875ZM15.7083 75.0462C15.7083 54.0879 29.3965 36.4479 48.0772 30.7162L43.6578 16.3041C18.7024 23.9514 0.625 47.3909 0.625 75.0386H15.7083V75.0462ZM61.2751 121.322C36.2066 121.314 15.7083 100.688 15.7083 75.0386H0.625C0.625 108.825 27.6845 136.398 61.2751 136.398V121.322ZM104.451 89.8731C98.3424 108.222 81.268 121.322 61.2751 121.322V136.398C88.0631 136.398 110.696 118.856 118.758 94.647L104.451 89.8806V89.8731Z" fill="#0ea5e9"/>
<path fill-rule="evenodd" clip-rule="evenodd" d="M106.208 0.625C108.209 0.625 110.127 1.41957 111.541 2.8339C112.955 4.24824 113.75 6.16649 113.75 8.16667C113.75 12.167 115.339 16.0035 118.168 18.8322C120.996 21.6609 124.833 23.25 128.833 23.25C130.833 23.25 132.752 24.0446 134.166 25.4589C135.58 26.8732 136.375 28.7915 136.375 30.7917C136.375 32.7918 135.58 34.7101 134.166 36.1244C132.752 37.5388 130.833 38.3333 128.833 38.3333C124.833 38.3333 120.996 39.9225 118.168 42.7511C115.339 45.5798 113.75 49.4163 113.75 53.4167C113.75 55.4168 112.955 57.3351 111.541 58.7494C110.127 60.1638 108.209 60.9583 106.208 60.9583C104.208 60.9583 102.29 60.1638 100.876 58.7494C99.4612 57.3351 98.6667 55.4168 98.6667 53.4167C98.6667 49.4163 97.0775 45.5798 94.2489 42.7511C91.4202 39.9225 87.5837 38.3333 83.5833 38.3333C81.5832 38.3333 79.6649 37.5388 78.2506 36.1244C76.8362 34.7101 76.0417 32.7918 76.0417 30.7917C76.0417 28.7915 76.8362 26.8732 78.2506 25.4589C79.6649 24.0446 81.5832 23.25 83.5833 23.25C87.5837 23.25 91.4202 21.6609 94.2489 18.8322C97.0775 16.0035 98.6667 12.167 98.6667 8.16667C98.6667 6.16649 99.4612 4.24824 100.876 2.8339C102.29 1.41957 104.208 0.625 106.208 0.625Z" fill="#0ea5e9"/>
</svg>
