<svg width="132" height="132" viewBox="0 0 132 132" fill="none" xmlns="http://www.w3.org/2000/svg">
<path d="M66 0V8.24485ZM112.666 19.3259L105.839 26.1527ZM132 65.9918H123.755ZM112.666 112.658L105.839 105.831ZM66 132V123.673ZM19.3342 112.658L26.2186 105.765ZM0 65.9918H8.3273ZM16.5309 16.4897L23.4154 23.3824Z" fill="#D9D9D9"/>
<path d="M93.5 66C93.5 73.2935 90.6027 80.2882 85.4454 85.4454C80.2882 90.6027 73.2935 93.5 66 93.5C58.7065 93.5 51.7118 90.6027 46.5546 85.4454C41.3973 80.2882 38.5 73.2935 38.5 66C38.5 58.7065 41.3973 51.7118 46.5546 46.5546C51.7118 41.3973 58.7065 38.5 66 38.5C73.2935 38.5 80.2882 41.3973 85.4454 46.5546C90.6027 51.7118 93.5 58.7065 93.5 66ZM88.981 88.981C95.0759 82.886 98.5 74.6195 98.5 66C98.5 57.3805 95.0759 49.114 88.981 43.019C82.886 36.9241 74.6195 33.5 66 33.5C57.3805 33.5 49.114 36.9241 43.019 43.019C36.9241 49.114 33.5 57.3805 33.5 66C33.5 74.6195 36.9241 82.886 43.019 88.981C49.114 95.0759 57.3805 98.5 66 98.5C74.6195 98.5 82.886 95.0759 88.981 88.981ZM63.5 0V8.24485H68.5V0H63.5ZM110.898 17.5582L104.071 24.3849L107.607 27.9204L114.434 21.0937L110.898 17.5582ZM132 63.4918H123.755V68.4918H132V63.4918ZM114.434 110.89L107.607 104.063L104.071 107.599L110.898 114.425L114.434 110.89ZM68.5 132V123.673H63.5V132H68.5ZM21.103 114.424L27.9874 107.532L24.4498 103.998L17.5653 110.891L21.103 114.424ZM0 68.4918H8.3273V63.4918H0V68.4918ZM14.7621 18.2564L21.6465 25.1491L25.1842 21.6157L18.2997 14.723L14.7621 18.2564Z" stroke="#D9D9D9" stroke-width="5"/>
</svg>
 