<svg width="142" height="142" viewBox="0 0 142 142" fill="none" xmlns="http://www.w3.org/2000/svg">
<mask id="path-1-outside-1_108_34" maskUnits="userSpaceOnUse" x="0.333328" y="0.333332" width="142" height="142" fill="black">
<rect fill="white" x="0.333328" y="0.333332" width="142" height="142"/>
<path d="M6.33333 22.5C6.33333 18.2123 8.0366 14.1003 11.0684 11.0684C14.1003 8.0366 18.2123 6.33333 22.5 6.33333H119.5C123.788 6.33333 127.9 8.0366 130.932 11.0684C133.963 14.1003 135.667 18.2123 135.667 22.5V79.0833C135.667 83.371 133.963 87.4831 130.932 90.5149C127.9 93.5467 123.788 95.25 119.5 95.25H22.5C18.2123 95.25 14.1003 93.5467 11.0684 90.5149C8.0366 87.4831 6.33333 83.371 6.33333 79.0833V22.5Z"/>
<path d="M87.1667 95.25C87.1667 119.5 103.333 135.667 103.333 135.667H38.6667C38.6667 135.667 54.8333 119.5 54.8333 95.25"/>
</mask>
<path d="M22.5 6.33333L22.5 0.333332L22.5 6.33333ZM119.5 6.33333V0.333332V6.33333ZM6.33333 79.0833L0.333328 79.0833L6.33333 79.0833ZM103.333 135.667V141.667H117.819L107.576 131.424L103.333 135.667ZM38.6667 135.667L34.424 131.424L24.1814 141.667H38.6667V135.667ZM12.3333 22.5C12.3333 19.8036 13.4045 17.2177 15.3111 15.3111L6.82579 6.8258C2.66874 10.9829 0.333328 16.621 0.333328 22.5H12.3333ZM15.3111 15.3111C17.2177 13.4045 19.8036 12.3333 22.5 12.3333L22.5 0.333332C16.621 0.333332 10.9829 2.66874 6.82579 6.8258L15.3111 15.3111ZM22.5 12.3333H119.5V0.333332H22.5V12.3333ZM119.5 12.3333C122.196 12.3333 124.782 13.4045 126.689 15.3111L135.174 6.8258C131.017 2.66874 125.379 0.333332 119.5 0.333332L119.5 12.3333ZM126.689 15.3111C128.596 17.2177 129.667 19.8036 129.667 22.5H141.667C141.667 16.621 139.331 10.9829 135.174 6.8258L126.689 15.3111ZM129.667 22.5V79.0833H141.667V22.5H129.667ZM129.667 79.0833C129.667 81.7797 128.596 84.3656 126.689 86.2722L135.174 94.7575C139.331 90.6005 141.667 84.9623 141.667 79.0833H129.667ZM126.689 86.2722C124.782 88.1789 122.196 89.25 119.5 89.25V101.25C125.379 101.25 131.017 98.9146 135.174 94.7575L126.689 86.2722ZM119.5 89.25H22.5V101.25H119.5V89.25ZM22.5 89.25C19.8036 89.25 17.2177 88.1789 15.3111 86.2722L6.82579 94.7575C10.9828 98.9146 16.621 101.25 22.5 101.25V89.25ZM15.3111 86.2722C13.4045 84.3656 12.3333 81.7797 12.3333 79.0833L0.333328 79.0833C0.333328 84.9623 2.66874 90.6005 6.82579 94.7575L15.3111 86.2722ZM12.3333 79.0833V22.5H0.333328V79.0833H12.3333ZM81.1667 95.25C81.1667 108.718 85.6523 119.85 90.0405 127.529C92.2418 131.381 94.4476 134.417 96.1221 136.51C96.9608 137.558 97.6706 138.376 98.1861 138.946C98.4439 139.232 98.6536 139.456 98.8069 139.617C98.8836 139.698 98.9463 139.762 98.9939 139.811C99.0177 139.836 99.0378 139.856 99.0539 139.872C99.062 139.881 99.0691 139.888 99.0753 139.894C99.0783 139.897 99.0812 139.9 99.0837 139.902C99.085 139.904 99.0868 139.905 99.0874 139.906C99.0891 139.908 99.0907 139.909 103.333 135.667C107.576 131.424 107.577 131.426 107.579 131.427C107.579 131.427 107.581 131.429 107.581 131.43C107.583 131.431 107.584 131.432 107.585 131.434C107.588 131.436 107.589 131.437 107.589 131.437C107.59 131.438 107.587 131.435 107.58 131.428C107.566 131.414 107.538 131.385 107.497 131.341C107.413 131.254 107.275 131.107 107.091 130.903C106.723 130.495 106.169 129.86 105.492 129.014C104.136 127.318 102.3 124.796 100.459 121.575C96.7643 115.109 93.1667 106.032 93.1667 95.25H81.1667ZM103.333 129.667H38.6667V141.667H103.333V129.667ZM38.6667 135.667C42.9093 139.909 42.9109 139.908 42.9126 139.906C42.9132 139.905 42.915 139.904 42.9163 139.902C42.9188 139.9 42.9217 139.897 42.9247 139.894C42.9308 139.888 42.938 139.881 42.946 139.872C42.9622 139.856 42.9823 139.836 43.0061 139.811C43.0537 139.762 43.1164 139.698 43.193 139.617C43.3464 139.456 43.5561 139.232 43.8139 138.946C44.3294 138.376 45.0392 137.558 45.8779 136.51C47.5524 134.417 49.7582 131.381 51.9595 127.529C56.3476 119.85 60.8333 108.718 60.8333 95.25H48.8333C48.8333 106.032 45.2357 115.109 41.5405 121.575C39.7001 124.796 37.8642 127.318 36.5075 129.014C35.8306 129.86 35.2774 130.495 34.9087 130.903C34.7245 131.107 34.5869 131.254 34.5034 131.341C34.4617 131.385 34.4336 131.414 34.42 131.428C34.4132 131.435 34.4101 131.438 34.4107 131.437C34.411 131.437 34.4123 131.436 34.4145 131.434C34.4156 131.432 34.4169 131.431 34.4185 131.43C34.4193 131.429 34.4207 131.427 34.4211 131.427C34.4225 131.426 34.424 131.424 38.6667 135.667Z" fill="#D9D9D9" mask="url(#path-1-outside-1_108_34)"/>
</svg>
